<svg xmlns="http://www.w3.org/2000/svg" viewBox="0 0 800 420" font-family="Segoe UI, sans-serif">
<rect width="800" height="420" fill="#0d1117" rx="8"/>
<text x="64" y="30" fill="#e6edf3" font-size="17" font-weight="700">★ Star History — timoncool/SuperCaption_Qwen3-VL</text>
<text x="776" y="30" fill="#e6edf3" font-size="14" text-anchor="end">19 stars · updated 2026-09-07</text>
<line x1="64" y1="364.0" x2="776" y2="364.0" stroke="#30363d" stroke-width="1"/><text x="54" y="368.0" fill="#e6edf3" font-size="13" text-anchor="end">0</text><line x1="64" y1="280.8" x2="776" y2="280.8" stroke="#30363d" stroke-width="1"/><text x="54" y="284.8" fill="#e6edf3" font-size="13" text-anchor="end">5</text><line x1="64" y1="197.7" x2="776" y2="197.7" stroke="#30363d" stroke-width="1"/><text x="54" y="201.7" fill="#e6edf3" font-size="13" text-anchor="end">10</text><line x1="64" y1="131.2" x2="776" y2="131.2" stroke="#30363d" stroke-width="1"/><text x="54" y="135.2" fill="#e6edf3" font-size="13" text-anchor="end">14</text><line x1="64" y1="48.0" x2="776" y2="48.0" stroke="#30363d" stroke-width="1"/><text x="54" y="52.0" fill="#e6edf3" font-size="13" text-anchor="end">19</text>
<path d="M64.0,364.0 L64.0,347.4 L106.1,330.7 L199.4,314.1 L214.3,297.5 L239.0,280.8 L256.7,264.2 L371.4,247.6 L389.1,230.9 L418.5,214.3 L423.8,197.7 L427.5,181.1 L434.7,164.4 L453.0,147.8 L575.1,131.2 L647.2,114.5 L659.6,97.9 L701.9,81.3 L709.3,64.6 L726.0,48.0 L776.0,48.0" fill="none" stroke="#4f8ff7" stroke-width="2.5" stroke-linejoin="round"/>
<circle cx="776.0" cy="48.0" r="4" fill="#4f8ff7"/>
<text x="64.0" y="388" fill="#e6edf3" font-size="13" text-anchor="middle">Nov 26, 2025</text><text x="301.3" y="388" fill="#e6edf3" font-size="13" text-anchor="middle">Mar 01, 2026</text><text x="538.7" y="388" fill="#e6edf3" font-size="13" text-anchor="middle">Jun 04, 2026</text><text x="776.0" y="388" fill="#e6edf3" font-size="13" text-anchor="middle">Sep 07, 2026</text>
</svg>